<?xml version="1.0" standalone="no"?>
<!DOCTYPE svg PUBLIC "-//W3C//DTD SVG 20010904//EN"
 "http://www.w3.org/TR/2001/REC-SVG-20010904/DTD/svg10.dtd">
<svg version="1.0" xmlns="http://www.w3.org/2000/svg"
 width="1024.000000pt" height="1024.000000pt" viewBox="0 0 1024.000000 1024.000000"
 preserveAspectRatio="xMidYMid meet">

<g transform="translate(0.000000,1024.000000) scale(0.100000,-0.100000)"
fill="#000000" stroke="none">
<path d="M3605 9070 c-137 -5 -200 -12 -264 -29 -454 -120 -778 -434 -886
-861 -23 -90 -28 -138 -35 -330 -13 -328 -13 -5579 0 -5660 6 -36 13 -76 15
-90 4 -19 3 -21 -5 -10 -5 8 -10 26 -10 39 0 13 -3 21 -7 17 -8 -8 -11 -33
-13 -101 -1 -22 -7 -43 -13 -47 -9 -6 -9 -10 -1 -15 6 -5 17 -18 23 -31 11
-20 10 -27 -6 -44 -16 -17 -16 -21 -3 -31 15 -12 19 -45 7 -65 -4 -5 -1 -15 6
-21 8 -6 13 -28 13 -50 -1 -22 4 -39 9 -38 6 1 11 -11 13 -26 3 -27 4 -28 18
-10 13 16 14 13 12 -35 -2 -28 0 -52 5 -52 4 0 7 5 7 10 0 19 15 10 35 -20 11
-16 25 -30 31 -30 7 0 11 -14 10 -32 -1 -27 3 -34 22 -36 22 -3 32 -22 11 -22
-5 0 -8 -4 -5 -9 3 -4 18 -6 32 -3 19 3 25 1 20 -7 -4 -6 -1 -11 9 -11 9 0 13
-4 10 -10 -3 -5 5 -12 19 -16 29 -7 52 -31 41 -42 -4 -4 -10 -1 -12 6 -3 6 -9
12 -14 12 -5 0 -4 -9 3 -20 7 -11 18 -20 25 -20 6 0 13 -6 16 -12 2 -7 8 -10
12 -5 5 4 3 13 -3 19 -17 17 -15 28 3 22 8 -4 15 -1 15 6 0 6 5 8 11 4 8 -5 8
-8 0 -14 -7 -3 -9 -14 -5 -23 3 -9 10 -15 14 -12 4 3 11 -6 14 -20 4 -15 13
-24 24 -23 35 3 52 -2 52 -16 0 -8 -6 -17 -12 -19 -7 -3 15 -6 50 -6 44 -1 61
-5 60 -14 -3 -13 22 -14 64 -4 19 5 24 2 25 -15 3 -29 27 -43 31 -18 2 11 11
20 20 19 11 0 12 -3 5 -6 -15 -6 -17 -33 -3 -33 5 0 13 12 16 27 7 26 7 26 15
6 10 -26 58 -60 67 -47 4 5 15 10 25 10 13 2 15 -1 7 -11 -8 -10 0 -12 40 -9
28 2 55 6 59 8 4 3 17 -1 27 -9 24 -18 48 -19 74 -2 17 10 22 9 29 -1 6 -11
17 -11 47 -3 27 8 40 7 45 0 4 -8 11 -5 18 7 11 17 11 16 5 -5 -5 -20 -3 -23
11 -18 9 4 25 2 36 -3 14 -8 19 -7 19 1 0 9 3 9 14 0 9 -7 22 -8 37 -3 27 10
65 8 92 -3 9 -4 23 -5 31 -2 7 3 19 0 25 -6 9 -9 11 -8 6 6 -8 20 6 22 36 5
15 -9 23 -10 25 -2 3 5 19 8 37 6 17 -2 51 -5 74 -5 24 -1 38 -4 32 -8 -15 -9
35 -21 55 -13 9 3 16 1 16 -6 0 -6 5 -8 10 -5 6 4 7 11 4 17 -9 14 54 0 83
-18 28 -17 33 -18 33 -1 0 15 67 17 89 3 8 -5 16 -5 20 1 11 16 51 13 51 -4 0
-12 3 -13 14 -4 8 6 18 11 22 10 5 -1 11 0 14 1 22 9 109 5 128 -7 21 -13 27
-12 49 2 21 14 27 15 34 4 7 -12 12 -12 29 -1 18 11 24 11 37 0 19 -16 91 -18
97 -2 5 14 64 16 89 2 12 -6 22 -6 26 -1 10 16 59 24 67 12 5 -8 9 -8 14 1 6
9 14 6 31 -11 l23 -23 6 22 c5 20 7 21 32 8 16 -9 30 -10 36 -4 15 15 105 20
114 6 5 -9 8 -7 8 7 0 15 2 17 9 6 5 -7 13 -11 19 -7 6 3 13 2 17 -4 8 -13 35
-13 35 -1 0 5 -8 11 -17 14 -10 2 1 4 25 3 27 0 42 -5 42 -13 0 -7 7 -13 15
-13 9 0 12 6 8 17 -5 13 -2 15 11 10 10 -4 20 -7 22 -7 2 0 4 -9 4 -19 0 -11
5 -23 10 -26 7 -4 9 2 4 19 -7 29 -3 30 43 17 22 -7 35 -6 39 1 5 7 12 4 21
-7 11 -17 13 -17 13 -2 0 14 4 15 27 6 15 -5 29 -6 32 -1 3 5 16 14 28 20 16
9 22 9 26 -1 3 -9 7 -9 19 1 13 10 17 9 23 -10 6 -22 7 -22 13 -3 7 20 37 27
59 12 6 -4 14 -4 17 1 3 5 19 7 35 6 21 -1 31 3 31 12 0 8 5 14 10 14 6 0 10
-6 10 -14 0 -17 34 -16 68 3 19 10 30 10 55 0 24 -10 32 -10 35 -1 2 7 10 12
19 12 10 0 12 6 8 20 -3 11 -2 20 4 20 5 0 12 -8 14 -17 4 -17 5 -17 6 0 1 12
9 17 29 17 34 0 92 27 92 42 0 6 9 8 20 5 11 -3 34 1 50 10 22 10 93 17 272
23 260 9 333 20 468 70 177 65 321 157 453 287 155 154 258 375 288 623 9 72
10 801 5 2960 -7 2793 -7 2866 -26 2954 -50 227 -171 440 -345 605 -166 158
-390 262 -653 303 -87 13 -2884 20 -3207 8z m1683 -157 c-15 -2 -42 -2 -60 0
-18 2 -6 4 27 4 33 0 48 -2 33 -4z m482 -23 c58 -3 -196 -6 -565 -6 -519 0
-590 2 -315 6 537 8 764 8 880 0z m1310 -75 c92 -42 247 -138 231 -143 -5 -2
-20 2 -33 9 -13 8 -27 12 -33 10 -5 -1 -7 1 -3 5 9 8 -28 37 -51 41 -8 1 -33
15 -57 32 -23 17 -49 31 -58 31 -8 0 -17 4 -20 8 -3 5 -39 17 -81 27 -70 16
-83 23 -69 38 9 8 77 -15 174 -58z m-150 -3 c30 -8 62 -22 70 -30 13 -13 12
-13 -8 -3 -12 7 -64 23 -115 36 -53 14 -73 22 -47 19 25 -3 70 -13 100 -22z
m-3745 8 c-3 -5 -12 -10 -18 -10 -7 0 -6 4 3 10 19 12 23 12 15 0z m172 -6
c-3 -3 -12 -4 -19 -1 -8 3 -5 6 6 6 11 1 17 -2 13 -5z m-47 -14 c-8 -5 -19
-10 -25 -10 -5 0 -3 5 5 10 8 5 20 10 25 10 6 0 3 -5 -5 -10z m-41 -13 c-20
-16 -109 -56 -104 -47 8 12 82 49 99 50 5 0 7 -1 5 -3z m2123 -102 c254 -30
434 -83 653 -192 222 -111 369 -215 531 -377 333 -335 496 -644 600 -1141 58
-280 23 -644 -93 -970 -36 -99 -146 -315 -206 -405 -92 -136 -240 -322 -298
-371 -229 -200 -365 -295 -537 -376 -63 -29 -118 -53 -123 -53 -21 0 3 19 39
31 20 6 46 20 58 30 11 11 23 17 25 15 3 -3 13 8 24 25 21 31 44 42 86 41 16
0 39 11 58 29 18 16 29 29 24 29 -4 0 3 7 15 16 12 8 27 12 33 9 15 -10 59 46
59 74 0 18 -4 22 -20 18 -22 -6 34 47 135 128 73 58 114 101 215 225 206 252
338 535 406 870 24 117 27 159 28 315 0 195 -11 273 -65 489 -58 230 -191 500
-346 705 -90 118 -276 298 -398 386 -225 161 -524 288 -806 342 -116 22 -163
26 -344 26 -226 1 -288 -6 -515 -63 -198 -49 -329 -106 -535 -233 -156 -97
-213 -139 -326 -245 -388 -364 -609 -887 -609 -1437 0 -71 7 -175 15 -230 17
-120 17 -135 0 -75 -8 28 -13 36 -14 23 -1 -16 -7 -23 -22 -23 -15 0 -19 -4
-15 -16 3 -9 6 -27 6 -41 0 -15 3 -23 7 -20 3 4 12 -1 19 -11 12 -16 13 -16
14 3 l1 20 9 -20 c7 -17 9 -16 10 10 l2 30 9 -30 c5 -16 7 -41 4 -55 -4 -19
-3 -21 5 -10 9 13 10 13 10 0 0 -8 3 -26 7 -39 4 -17 3 -22 -5 -17 -7 4 -14
-4 -17 -21 -4 -15 -10 -35 -14 -43 -8 -15 10 -53 35 -75 7 -5 19 -23 28 -40
l16 -30 -6 29 c-5 22 -4 27 6 21 10 -6 11 -4 6 11 -22 52 -14 51 9 -1 75 -169
144 -289 244 -421 17 -23 27 -45 23 -49 -4 -5 -2 -5 5 -2 6 4 20 -3 30 -16 57
-73 179 -199 256 -263 48 -41 84 -74 79 -74 -5 0 -28 18 -53 40 -24 22 -47 40
-51 40 -7 0 -127 123 -207 212 -34 37 -47 46 -68 42 -24 -5 -25 -3 -19 30 6
29 3 35 -14 41 -11 4 -18 10 -15 15 3 5 1 11 -4 14 -5 3 -12 -6 -16 -21 -5
-21 -8 -24 -16 -12 -10 16 -12 8 -3 -15 3 -8 12 -12 19 -10 10 4 12 0 8 -15
-3 -13 4 -29 24 -48 15 -16 44 -49 63 -73 19 -24 49 -60 65 -79 17 -20 22 -30
12 -22 -10 8 -53 55 -96 105 -191 225 -305 416 -383 646 -81 238 -123 555 -99
740 58 439 132 664 316 956 178 283 406 504 695 676 180 106 183 108 315 158
175 67 334 103 535 123 95 10 349 5 462 -8z m-2332 -10 c0 -2 -10 -9 -22 -15
-22 -11 -22 -10 -4 4 21 17 26 19 26 11z m4300 -40 c13 -14 21 -25 18 -25 -2
0 -15 11 -28 25 -13 14 -21 25 -18 25 2 0 15 -11 28 -25z m-4440 11 c0 -3 -4
-8 -10 -11 -5 -3 -10 -1 -10 4 0 6 5 11 10 11 6 0 10 -2 10 -4z m4430 -81 c13
-14 21 -25 18 -25 -2 0 -15 11 -28 25 -13 14 -21 25 -18 25 2 0 15 -11 28 -25z
m-2005 -90 c99 -9 231 -38 368 -79 220 -67 419 -182 685 -393 14 -11 14 -15 1
-30 -53 -63 -257 -287 -301 -331 l-55 -53 -44 41 c-174 161 -447 272 -751 305
l-58 6 0 268 c0 147 3 271 7 275 4 4 23 5 43 2 19 -3 67 -8 105 -11z m-257
-267 l-3 -273 -40 -3 c-141 -9 -328 -61 -485 -134 -104 -48 -237 -136 -279
-184 l-32 -35 -36 31 c-79 70 -354 362 -350 373 2 7 41 43 88 80 208 169 413
276 671 351 145 42 271 64 386 65 l82 1 -2 -272z m1992 203 c53 -38 57 -122 8
-171 -82 -83 -222 24 -170 130 31 64 102 82 162 41z m-3781 5 c95 -50 45 -196
-67 -196 -90 0 -121 130 -45 190 30 23 73 26 112 6z m4260 -102 c7 8 10 20 6
26 -3 5 -4 10 -1 10 7 0 36 -56 36 -67 0 -4 -7 1 -16 12 -12 17 -16 18 -24 5
-5 -8 -5 -21 1 -33 6 -10 9 -23 6 -30 -2 -6 -16 15 -30 47 -32 68 -34 82 -8
43 15 -24 20 -26 30 -13z m60 -76 c6 -18 7 -28 2 -23 -10 12 -25 55 -18 55 3
0 10 -15 16 -32z m38 -170 c-3 -8 -6 -5 -6 6 -1 11 2 17 5 13 3 -3 4 -12 1
-19z m-17 -147 c0 -46 -2 -82 -4 -80 -2 2 -6 47 -9 99 -4 60 -3 89 3 80 5 -8
10 -53 10 -99z m-3661 -212 l193 -199 -49 -57 c-71 -83 -109 -141 -153 -237
-65 -143 -120 -331 -120 -414 0 -16 -3 -44 -6 -61 l-6 -31 -284 0 c-196 0
-284 3 -284 11 0 37 45 300 65 379 28 107 97 296 144 388 67 132 275 426 299
421 4 -1 94 -91 201 -200z m2641 39 c201 -267 340 -630 357 -935 l6 -103 -271
0 -271 0 -5 48 c-12 94 -38 228 -58 297 -40 136 -128 302 -225 421 l-34 42 28
33 c15 19 97 108 182 198 l156 163 38 -43 c22 -24 65 -79 97 -121z m1027 -75
c-2 -16 -4 -5 -4 22 0 28 2 40 4 28 2 -13 2 -35 0 -50z m-5040 15 c-3 -7 -5
-2 -5 12 0 14 2 19 5 13 2 -7 2 -19 0 -25z m5040 -260 c-3 -8 -6 -5 -6 6 -1
11 2 17 5 13 3 -3 4 -12 1 -19z m0 -60 c-3 -8 -6 -5 -6 6 -1 11 2 17 5 13 3
-3 4 -12 1 -19z m-1800 -159 c55 -26 116 -96 132 -150 8 -27 10 -63 6 -100 -8
-65 -43 -145 -63 -141 -7 1 -144 -128 -305 -287 -161 -158 -308 -302 -328
-320 -56 -47 -115 -71 -185 -71 -55 0 -65 4 -121 43 -34 24 -93 73 -130 110
-37 36 -70 61 -72 55 -2 -6 5 -15 15 -21 10 -6 28 -20 39 -31 12 -12 41 -39
66 -60 24 -21 68 -62 98 -90 43 -40 63 -52 100 -58 36 -5 30 -6 -30 -4 -51 2
-84 8 -100 19 -13 10 -103 91 -199 181 -96 91 -217 202 -269 248 -116 103
-143 149 -149 257 -5 89 11 131 73 193 56 56 109 72 206 65 113 -9 154 -34
335 -209 83 -82 157 -148 162 -148 6 0 15 7 20 15 4 9 29 37 53 63 25 26 79
85 119 132 168 193 266 294 305 311 57 26 166 25 222 -2z m18 -471 c-88 -95
-586 -586 -620 -612 -16 -13 -43 -26 -60 -30 l-30 -6 25 15 c14 8 21 14 15 15
-5 0 5 9 22 20 51 31 84 61 328 302 255 251 366 358 373 358 3 0 -21 -28 -53
-62z m-2048 -132 c30 -7 30 -8 41 -99 17 -140 47 -242 102 -354 55 -111 134
-234 174 -272 14 -14 26 -29 26 -34 0 -19 -362 -397 -379 -397 -15 0 -123 125
-198 230 -122 170 -192 317 -243 515 -29 111 -60 305 -60 370 0 33 1 34 43 37
97 7 466 10 494 4z m3162 -93 c-17 -201 -99 -491 -189 -661 -56 -106 -183
-292 -250 -365 l-45 -49 -96 98 c-89 93 -198 208 -262 280 l-27 31 58 71 c138
169 224 383 257 635 l6 47 277 0 278 0 -7 -87z m-832 -855 c142 -144 263 -279
263 -294 0 -17 -153 -143 -258 -213 -137 -89 -336 -184 -476 -226 -126 -38
-372 -85 -442 -85 l-41 0 -7 61 c-3 34 -6 160 -6 279 0 237 -2 230 58 230 48
0 275 57 361 90 139 54 331 168 394 235 17 19 34 35 37 35 3 0 55 -51 117
-112z m-1839 49 c195 -156 442 -263 662 -288 52 -6 101 -13 108 -15 9 -3 12
-68 12 -284 l0 -280 -30 0 c-99 0 -345 49 -515 102 -164 52 -479 237 -610 360
l-70 66 21 23 c12 13 25 32 30 41 10 18 312 328 320 328 3 0 35 -24 72 -53z
m-528 -542 c13 -14 21 -25 18 -25 -2 0 -15 11 -28 25 -13 14 -21 25 -18 25 2
0 15 -11 28 -25z m300 -120 c0 -7 -63 33 -95 60 -16 15 -2 8 33 -15 34 -22 62
-43 62 -45z m-190 28 c0 -7 -39 17 -46 28 -3 6 5 3 20 -6 14 -10 26 -19 26
-22z m2430 23 c0 -2 -7 -7 -16 -10 -8 -3 -12 -2 -9 4 6 10 25 14 25 6z m774
-61 c34 -31 36 -88 4 -122 -31 -34 -96 -32 -132 3 -56 56 -17 144 64 144 25 0
45 -8 64 -25z m-2564 -206 c10 -6 4 -7 -15 -3 -16 4 -37 11 -45 15 -10 6 -4 7
15 3 17 -4 37 -11 45 -15z m1370 -34 c0 -9 -85 -43 -146 -59 -31 -8 -53 -12
-50 -9 4 4 163 63 194 72 1 1 2 -1 2 -4z m-1120 -35 c20 -6 21 -8 5 -8 -11 0
-31 4 -45 8 -20 6 -21 8 -5 8 11 0 31 -4 45 -8z m263 -37 c-13 -2 -35 -2 -50
0 -16 2 -5 4 22 4 28 0 40 -2 28 -4z m2605 -241 l33 -2 -3 -1132 -3 -1133 -23
-80 c-96 -333 -348 -569 -722 -678 l-75 -21 -1695 -4 c-1117 -2 -1722 1 -1773
7 -169 23 -362 112 -487 225 -111 101 -171 179 -230 301 -102 210 -94 91 -100
1382 l-5 1133 230 2 c278 4 4806 4 4853 0z m-5110 -2657 c-3 -3 -9 2 -12 12
-6 14 -5 15 5 6 7 -7 10 -15 7 -18z m-68 -115 c0 -5 -4 -10 -10 -10 -5 0 -10
5 -10 10 0 6 5 10 10 10 6 0 10 -4 10 -10z m258 -123 c8 -10 6 -13 -11 -14
-12 0 -16 1 -9 4 6 3 10 9 6 14 -8 14 2 11 14 -4z m377 -252 c17 -4 24 -10 18
-12 -18 -7 -79 15 -95 34 -12 15 -10 15 17 1 17 -8 44 -19 60 -23z m-275 -35
c0 -5 -4 -10 -10 -10 -5 0 -10 5 -10 10 0 6 5 10 10 10 6 0 10 -4 10 -10z
m863 -157 c-7 -2 -19 -2 -25 0 -7 3 -2 5 12 5 14 0 19 -2 13 -5z"/>
<path d="M6256 8285 c10 -8 26 -14 34 -14 9 0 4 6 -10 14 -33 19 -49 19 -24 0z"/>
<path d="M3141 6204 c0 -11 3 -14 6 -6 3 7 2 16 -1 19 -3 4 -6 -2 -5 -13z"/>
<path d="M3269 5845 c-8 -7 13 -55 23 -55 4 0 9 4 12 9 7 11 -27 55 -35 46z"/>
<path d="M3309 5789 c-14 -8 -6 -45 15 -74 18 -24 33 -13 38 30 2 19 -1 29 -9
28 -7 -2 -10 3 -7 10 5 15 -18 18 -37 6z"/>
<path d="M3401 5625 c0 -5 6 -19 14 -29 8 -11 15 -15 15 -10 0 6 -7 19 -15 30
-8 10 -14 15 -14 9z"/>
<path d="M6570 5330 c-13 -8 -12 -10 3 -10 9 0 17 5 17 10 0 12 -1 12 -20 0z"/>
<path d="M6607 5301 c-4 -17 -3 -21 5 -13 5 5 8 16 6 23 -3 8 -7 3 -11 -10z"/>
<path d="M6535 5290 c-3 -5 1 -10 10 -10 9 0 13 5 10 10 -3 6 -8 10 -10 10 -2
0 -7 -4 -10 -10z"/>
<path d="M6527 5221 c-4 -17 -3 -21 5 -13 5 5 8 16 6 23 -3 8 -7 3 -11 -10z"/>
<path d="M6390 5170 c0 -5 5 -10 11 -10 5 0 7 5 4 10 -3 6 -8 10 -11 10 -2 0
-4 -4 -4 -10z"/>
<path d="M4465 6611 c44 -48 103 -93 116 -89 6 2 -15 24 -47 48 -90 69 -101
76 -69 41z"/>
<path d="M4600 6496 c0 -9 5 -16 11 -16 21 0 80 -53 75 -67 -4 -10 0 -13 13
-11 10 2 28 -6 40 -16 12 -11 21 -15 20 -10 -1 9 -134 125 -151 132 -4 2 -8
-3 -8 -12z"/>
<path d="M3222 4223 c-56 -20 -141 -98 -177 -165 -26 -46 -30 -63 -30 -133 0
-68 5 -89 29 -137 35 -69 74 -108 146 -145 48 -25 66 -28 145 -28 74 0 97 4
133 23 97 52 163 140 178 238 8 55 -12 147 -44 207 -64 119 -248 187 -380 140z
m187 -118 c23 -14 47 -25 53 -25 13 0 57 -52 58 -68 0 -8 -26 -41 -58 -75 -32
-34 -70 -79 -85 -99 -16 -21 -40 -41 -54 -44 -22 -6 -33 1 -78 47 -28 30 -57
63 -63 74 -10 18 -11 16 -12 -16 0 -21 7 -42 15 -49 8 -7 13 -16 10 -20 -4 -7
18 -22 37 -24 16 -2 21 -18 8 -26 -12 -7 -12 -11 1 -26 12 -15 8 -15 -21 3
-139 85 -127 278 23 352 56 28 112 27 166 -4z"/>
<path d="M3256 4011 c-14 -26 -14 -31 9 -62 14 -18 25 -39 25 -46 0 -22 14
-14 38 22 12 19 19 35 14 35 -4 0 -8 10 -9 23 -2 21 -36 57 -54 57 -5 0 -15
-13 -23 -29z"/>
<path d="M5749 4100 c-62 -11 -102 -41 -131 -99 -49 -95 -29 -198 48 -257 l37
-29 688 0 687 0 44 30 c119 85 124 249 9 330 l-43 30 -651 1 c-359 0 -668 -2
-688 -6z m1335 -63 c35 -23 66 -74 66 -109 0 -37 -44 -85 -88 -98 -24 -6 -278
-10 -698 -10 l-661 0 -20 23 c-64 70 -55 163 19 201 30 15 91 16 694 14 613
-3 663 -5 688 -21z"/>
<path d="M4057 4090 c-27 -5 -66 -20 -88 -34 -111 -74 -97 -240 26 -316 34
-21 38 -21 571 -21 357 1 551 5 578 12 56 15 132 91 141 143 10 49 -8 107 -46
150 -57 66 -41 64 -614 70 -287 3 -542 1 -568 -4z"/>
<path d="M3267 3409 c-88 -14 -179 -85 -229 -181 -17 -34 -22 -60 -22 -123 -1
-134 51 -214 183 -281 60 -30 156 -36 226 -14 89 27 181 123 206 214 6 23 9
71 7 107 -13 182 -180 307 -371 278z m107 -113 c51 -16 110 -56 126 -87 10
-17 -1 -33 -86 -124 -53 -58 -102 -105 -108 -105 -16 0 -124 107 -129 128 -3
12 -5 10 -6 -7 0 -13 -9 -30 -18 -37 -12 -9 -14 -16 -7 -21 6 -5 14 -17 17
-28 6 -18 5 -17 -13 3 -65 78 -17 216 93 268 61 28 69 29 131 10z m136 -271
c0 -8 -4 -15 -10 -15 -5 0 -7 7 -4 15 4 8 8 15 10 15 2 0 4 -7 4 -15z"/>
<path d="M3354 3172 c-12 -10 -25 -29 -29 -43 -8 -25 -6 -24 48 49 13 17 6 15
-19 -6z"/>
<path d="M3189 3143 c-13 -16 -12 -17 4 -4 16 13 21 21 13 21 -2 0 -10 -8 -17
-17z"/>
<path d="M3295 3090 c3 -5 8 -10 11 -10 2 0 4 5 4 10 0 6 -5 10 -11 10 -5 0
-7 -4 -4 -10z"/>
<path d="M5743 3280 c-42 -10 -99 -53 -124 -94 -35 -58 -21 -161 30 -220 43
-49 29 -48 756 -53 l680 -4 40 26 c103 67 125 194 49 285 -50 58 -49 58 -754
63 -355 3 -660 2 -677 -3z m559 -56 c36 -19 78 -92 78 -137 0 -27 -8 -44 -35
-73 -33 -35 -37 -36 -82 -31 -27 4 -109 10 -183 13 -74 4 -143 11 -153 16 -9
5 -34 6 -54 2 -32 -6 -35 -8 -18 -15 13 -6 -10 -8 -61 -6 l-80 2 -43 45 c-72
76 -64 144 25 194 25 14 62 15 304 10 203 -5 282 -10 302 -20z"/>
<path d="M4011 3269 c-71 -28 -121 -97 -121 -169 0 -43 29 -107 61 -137 58
-53 57 -53 626 -53 312 0 542 4 563 10 44 12 105 62 126 102 33 64 16 145 -43
200 -60 58 -66 58 -652 57 -311 0 -546 -4 -560 -10z"/>
<path d="M3211 2569 c-62 -25 -137 -94 -164 -152 -24 -49 -38 -141 -30 -191
14 -94 94 -195 188 -238 72 -33 180 -31 256 4 100 46 177 152 187 259 11 116
-65 252 -172 306 -72 37 -188 42 -265 12z m170 -101 c54 -16 119 -78 134 -128
7 -22 6 -23 -8 -12 -13 11 -27 0 -98 -78 -102 -111 -112 -112 -178 -25 -30 39
-52 59 -63 57 -21 -4 -32 -34 -23 -64 5 -18 4 -20 -4 -8 -18 26 -13 110 10
157 19 39 75 89 119 106 25 9 71 8 111 -5z"/>
<path d="M3374 2379 c-3 -6 -17 -8 -31 -4 -32 8 -63 -2 -63 -21 0 -10 -12 -14
-40 -14 -22 0 -40 -4 -40 -9 0 -4 11 -6 24 -4 16 3 34 -5 60 -27 l36 -32 14
33 c8 19 27 46 41 62 14 15 21 27 16 27 -5 0 -13 -5 -17 -11z m-54 -55 c0 -8
-19 -13 -24 -6 -3 5 1 9 9 9 8 0 15 -2 15 -3z"/>
<path d="M4005 2451 c-58 -26 -102 -81 -110 -135 -9 -58 23 -126 78 -170 l39
-31 566 0 567 0 48 28 c30 18 54 42 67 67 23 46 26 119 6 158 -19 36 -65 78
-99 91 -19 7 -213 11 -575 11 -507 0 -550 -2 -587 -19z"/>
<path d="M5705 2451 c-22 -10 -55 -32 -72 -50 -59 -58 -55 -168 8 -231 68 -67
24 -64 766 -63 l673 0 46 29 c65 40 98 101 90 168 -7 65 -46 122 -99 147 -40
18 -75 19 -707 19 -623 0 -668 -2 -705 -19z m285 -20 c0 -5 -6 -11 -12 -14 -7
-2 -10 -8 -6 -12 4 -4 15 0 24 9 11 12 20 14 27 7 7 -7 16 -7 29 0 22 12 183
14 201 2 6 -4 20 -6 29 -5 20 4 73 -71 63 -88 -3 -6 -1 -9 7 -8 7 2 14 -8 16
-21 5 -32 -6 -73 -18 -66 -5 3 -7 0 -4 -8 9 -24 -18 -37 -46 -22 -14 8 -20 14
-15 15 12 0 18 100 6 100 -5 0 -11 9 -14 20 -6 24 -42 26 -93 5 -32 -13 -40
-13 -84 4 -27 10 -50 15 -52 9 -2 -5 -20 -2 -40 6 -20 9 -44 13 -52 10 -22 -8
-21 21 2 45 19 21 32 26 32 12z"/>
<path d="M6280 2390 c0 -5 5 -10 10 -10 6 0 10 5 10 10 0 6 -4 10 -10 10 -5 0
-10 -4 -10 -10z"/>
<path d="M2371 4894 c0 -11 3 -14 6 -6 3 7 2 16 -1 19 -3 4 -6 -2 -5 -13z"/>
<path d="M2391 4864 c0 -11 3 -14 6 -6 3 7 2 16 -1 19 -3 4 -6 -2 -5 -13z"/>
<path d="M2385 4810 c-3 -5 -1 -10 4 -10 6 0 11 5 11 10 0 6 -2 10 -4 10 -3 0
-8 -4 -11 -10z"/>
<path d="M2391 4614 c0 -11 3 -14 6 -6 3 7 2 16 -1 19 -3 4 -6 -2 -5 -13z"/>
<path d="M2388 4518 c-2 -29 -8 -62 -13 -72 -6 -15 -5 -17 5 -11 10 6 12 3 8
-13 -4 -12 -2 -25 3 -28 5 -3 9 34 9 85 0 101 -6 119 -12 39z"/>
<path d="M2373 4520 c0 -25 2 -35 4 -22 2 12 2 32 0 45 -2 12 -4 2 -4 -23z"/>
<path d="M2374 4353 c-1 -13 2 -23 8 -23 5 0 7 -3 4 -8 -2 -4 -1 -23 4 -42 7
-30 8 -26 9 31 1 46 -3 66 -11 66 -7 0 -14 -11 -14 -24z"/>
<path d="M2371 4263 c0 -17 4 -35 10 -39 6 -3 8 -17 5 -29 -3 -13 -2 -27 4
-30 13 -8 13 57 1 71 -5 5 -11 20 -14 34 -4 21 -4 20 -6 -7z"/>
<path d="M2380 4108 c0 -18 5 -40 10 -48 7 -11 10 -2 10 33 0 26 -4 47 -10 47
-5 0 -10 -15 -10 -32z"/>
<path d="M2370 4040 c-1 -14 -2 -31 -1 -37 1 -7 -3 -13 -9 -13 -8 0 -9 -10 -5
-29 3 -17 2 -32 -4 -36 -17 -10 -14 -85 3 -91 10 -4 13 -15 9 -40 -3 -20 -1
-40 7 -49 10 -12 9 -15 -6 -15 -14 0 -15 -3 -6 -12 15 -15 16 -58 2 -58 -5 0
-10 -12 -9 -27 0 -25 1 -26 9 -8 7 17 9 15 9 -12 1 -18 6 -33 11 -33 6 0 9
-10 9 -22 -1 -17 -2 -19 -6 -5 -2 9 -12 17 -21 17 -13 0 -14 -2 -3 -9 8 -5 11
-16 6 -30 -4 -12 -2 -21 4 -21 6 0 11 -4 11 -10 0 -5 -7 -10 -16 -10 -14 0
-14 -3 -3 -16 10 -13 10 -17 -2 -26 -11 -7 -11 -11 -1 -15 14 -6 17 -53 2 -53
-5 0 -10 -5 -10 -11 0 -5 5 -7 10 -4 6 3 10 -3 10 -14 0 -11 5 -23 10 -26 6
-3 9 -36 8 -73 l-1 -67 -7 50 c-6 39 -7 33 -4 -30 1 -44 6 -91 9 -105 5 -20 5
-22 -5 -10 -9 13 -11 12 -8 -4 2 -11 9 -21 16 -24 9 -3 12 39 12 186 0 143 -3
192 -12 195 -10 4 -10 6 0 6 10 1 12 63 12 296 -1 162 -5 293 -10 290 -5 -3
-11 3 -13 12 -3 13 -5 11 -7 -7z m17 -402 c-3 -8 -6 -5 -6 6 -1 11 2 17 5 13
3 -3 4 -12 1 -19z m0 -290 c-3 -8 -6 -5 -6 6 -1 11 2 17 5 13 3 -3 4 -12 1
-19z"/>
<path d="M2371 3038 c0 -9 -4 -23 -7 -32 -4 -10 -1 -16 8 -16 11 0 12 -14 7
-72 -4 -40 -3 -83 2 -96 12 -31 12 -62 0 -43 -13 21 -18 1 -13 -54 5 -45 6
-47 13 -20 6 27 7 25 8 -15 0 -32 -2 -41 -9 -30 -8 13 -10 12 -10 -2 0 -10 5
-18 11 -18 11 0 11 -132 -1 -140 -4 -3 -2 -11 6 -17 11 -11 13 35 13 275 0
158 -4 278 -8 267 -8 -19 -9 -18 -13 5 -3 14 -6 17 -7 8z"/>
<path d="M2372 2570 c0 -14 2 -19 5 -12 2 6 2 18 0 25 -3 6 -5 1 -5 -13z"/>
<path d="M2381 2375 c1 -16 5 -41 9 -55 7 -22 8 -20 9 15 0 22 -4 47 -9 55 -7
11 -9 8 -9 -15z"/>
<path d="M2371 2304 c0 -11 3 -14 6 -6 3 7 2 16 -1 19 -3 4 -6 -2 -5 -13z"/>
<path d="M2383 2254 c3 -4 2 -14 -3 -23 -5 -10 -5 -23 1 -32 5 -7 9 -9 9 -4 0
6 5 3 10 -5 8 -12 10 -11 10 8 0 12 -5 22 -11 22 -6 0 -8 9 -4 20 4 13 2 20
-6 20 -7 0 -9 -3 -6 -6z"/>
<path d="M2374 1950 c2 -16 20 -14 24 2 3 10 2 10 -6 -1 -7 -9 -11 -10 -15 -2
-4 7 -5 8 -3 1z"/>
<path d="M2658 1373 c7 -3 16 -2 19 1 4 3 -2 6 -13 5 -11 0 -14 -3 -6 -6z"/>
<path d="M2775 1280 c-3 -5 -1 -10 4 -10 6 0 11 5 11 10 0 6 -2 10 -4 10 -3 0
-8 -4 -11 -10z"/>
<path d="M3725 1100 c-3 -5 3 -10 15 -10 12 0 18 5 15 10 -3 6 -10 10 -15 10
-5 0 -12 -4 -15 -10z"/>
</g>
</svg>
